<svg width="1024" height="1024" viewBox="0 0 1024 1024" fill="none" xmlns="http://www.w3.org/2000/svg">
<g clip-path="url(#clip0_1_13)">
<rect x="16" y="16" width="992" height="992" fill="white" stroke="#0076C0" stroke-width="32"/>
<rect x="16" y="16" width="992" height="185.6" fill="white" stroke="#0076C0" stroke-width="32"/>
<path d="M696.09 838.4H648.15L851.416 599.467L648.15 364.8H696.09L903.191 599.467L696.09 838.4Z" fill="#0076C0"/>
<path d="M97.7977 913.067L243.536 292.267H283.805L134.232 913.067H97.7977Z" fill="#0076C0"/>
<path d="M510.082 364.8L304.899 601.6L510.082 836.267H559.94L356.674 601.6L559.94 364.8H510.082Z" fill="#0076C0"/>
<circle cx="110" cy="112" r="25" fill="#0076C0"/>
<circle cx="110" cy="112" r="25" fill="#0076C0"/>
<circle cx="191" cy="112" r="25" fill="#0076C0"/>
<circle cx="272" cy="112" r="25" fill="#0076C0"/>
<rect x="593" y="87" width="348" height="50" fill="#0076C0"/>
</g>
<defs>
<clipPath id="clip0_1_13">
<rect width="1024" height="1024" fill="white"/>
</clipPath>
</defs>
</svg>